<svg width="298" height="37" viewBox="0 0 298 37" fill="none" xmlns="http://www.w3.org/2000/svg">
<path d="M15.5503 35.47H15.8153V36H8.28935V35.47H8.55435C8.83701 35.47 9.08435 35.364 9.29635 35.152C9.50835 34.94 9.68501 34.6927 9.82635 34.41C10.003 34.1273 10.1267 33.827 10.1973 33.509C10.268 33.1557 10.3033 32.8377 10.3033 32.555V2.981H4.15535C3.59001 2.981 3.09535 3.10466 2.67135 3.352C2.24735 3.59933 1.89401 3.91733 1.61135 4.306C1.32868 4.65933 1.11668 5.06567 0.975348 5.525C0.834014 5.949 0.763348 6.373 0.763348 6.797H0.233348V1.02H24.0303V6.797H23.5003C23.5003 6.373 23.4297 5.949 23.2883 5.525C23.147 5.06567 22.935 4.65933 22.6523 4.306C22.3697 3.91733 22.0163 3.59933 21.5923 3.352C21.1683 3.10466 20.6737 2.981 20.1083 2.981H13.8543V32.555C13.8543 32.8377 13.8897 33.1557 13.9603 33.509C14.031 33.827 14.137 34.1273 14.2783 34.41C14.455 34.6927 14.6317 34.94 14.8083 35.152C15.0203 35.364 15.2677 35.47 15.5503 35.47ZM41.9994 0.489999C44.7554 0.489999 47.2288 0.984666 49.4194 1.974C51.6101 2.928 53.4651 4.23533 54.9844 5.896C56.5391 7.52133 57.7228 9.42933 58.5354 11.62C59.3834 13.7753 59.8074 16.0367 59.8074 18.404C59.8074 21.054 59.3128 23.492 58.3234 25.718C57.3694 27.944 56.0444 29.852 54.3484 31.442C52.6524 33.032 50.6738 34.2863 48.4124 35.205C46.1864 36.0883 43.8014 36.53 41.2574 36.53C38.5368 36.53 36.0811 36.0353 33.8904 35.046C31.7351 34.0567 29.8978 32.7493 28.3784 31.124C26.8944 29.4987 25.7461 27.626 24.9334 25.506C24.1208 23.386 23.7144 21.1777 23.7144 18.881C23.7144 16.6197 24.1208 14.3937 24.9334 12.203C25.7461 9.977 26.9298 7.99833 28.4844 6.267C30.0744 4.53567 32.0001 3.14 34.2614 2.08C36.5228 1.02 39.1021 0.489999 41.9994 0.489999ZM41.9464 34.675C44.3138 34.569 46.3808 34.039 48.1474 33.085C49.9494 32.0957 51.4511 30.859 52.6524 29.375C53.8538 27.8557 54.7371 26.195 55.3024 24.393C55.9031 22.591 56.2034 20.8067 56.2034 19.04C56.2034 17.0967 55.8501 15.1357 55.1434 13.157C54.4368 11.1783 53.4298 9.394 52.1224 7.804C50.8151 6.17867 49.2428 4.87133 47.4054 3.882C45.6034 2.85733 43.5718 2.345 41.3104 2.345C39.1198 2.345 37.1588 2.83966 35.4274 3.829C33.6961 4.783 32.2121 6.01967 30.9754 7.539C29.7741 9.05833 28.8554 10.7543 28.2194 12.627C27.5834 14.4997 27.2654 16.337 27.2654 18.139C27.2654 20.0823 27.6364 22.0433 28.3784 24.022C29.1204 25.9653 30.1451 27.732 31.4524 29.322C32.7598 30.912 34.2968 32.2017 36.0634 33.191C37.8654 34.1803 39.8264 34.675 41.9464 34.675ZM64.4578 35.47H64.7228C65.0054 35.47 65.2528 35.3817 65.4648 35.205C65.6768 34.993 65.8534 34.7457 65.9948 34.463C66.1714 34.1803 66.2951 33.88 66.3658 33.562C66.4718 33.244 66.5248 32.9437 66.5248 32.661V4.306C66.5248 4.05867 66.4718 3.776 66.3658 3.458C66.2951 3.14 66.1714 2.83967 65.9948 2.557C65.8534 2.27433 65.6768 2.04466 65.4648 1.868C65.2528 1.656 65.0054 1.55 64.7228 1.55H64.4578V1.02H83.8558V6.055H83.3258C83.3258 5.24233 83.0431 4.53567 82.4778 3.935C81.9124 3.299 81.0468 2.981 79.8808 2.981H70.0758V15.86H72.5138C74.1391 15.86 75.7468 16.019 77.3368 16.337C78.9621 16.655 80.4108 17.2027 81.6828 17.98C82.9901 18.722 84.0324 19.7467 84.8098 21.054C85.6224 22.3613 86.0288 24.0043 86.0288 25.983C86.0288 27.5377 85.7284 28.9333 85.1278 30.17C84.5624 31.4067 83.7498 32.4667 82.6898 33.35C81.6298 34.198 80.3578 34.8517 78.8738 35.311C77.4251 35.7703 75.8351 36 74.1038 36H64.4578V35.47ZM72.1428 34.145C73.9094 34.145 75.4288 33.9507 76.7008 33.562C78.0081 33.1733 79.0858 32.6433 79.9338 31.972C80.7818 31.2653 81.4001 30.4527 81.7888 29.534C82.2128 28.58 82.4248 27.5553 82.4248 26.46C82.4248 23.8807 81.5061 21.7783 79.6688 20.153C77.8314 18.4923 75.2168 17.662 71.8248 17.662H70.0758V34.145H72.1428ZM91.118 1.02H98.697V1.55H98.432C98.1847 1.55 97.955 1.656 97.743 1.868C97.531 2.04466 97.3543 2.27433 97.213 2.557C97.0717 2.80433 96.948 3.10467 96.842 3.458C96.7713 3.776 96.736 4.05867 96.736 4.306V32.555C96.736 32.8377 96.7713 33.1557 96.842 33.509C96.9127 33.827 97.0187 34.1273 97.16 34.41C97.3367 34.6927 97.5133 34.94 97.69 35.152C97.902 35.364 98.1493 35.47 98.432 35.47H98.697V36H91.118V35.47H91.383C91.6657 35.47 91.913 35.3817 92.125 35.205C92.337 34.993 92.5137 34.7457 92.655 34.463C92.8317 34.145 92.9553 33.827 93.026 33.509C93.0967 33.1557 93.132 32.8377 93.132 32.555V4.306C93.132 4.05867 93.0967 3.776 93.026 3.458C92.9553 3.14 92.8317 2.83967 92.655 2.557C92.5137 2.27433 92.337 2.04466 92.125 1.868C91.913 1.656 91.6657 1.55 91.383 1.55H91.118V1.02Z" fill="white"/>
<path d="M146.075 35.47H146.34C146.588 35.47 146.817 35.364 147.029 35.152C147.241 34.94 147.418 34.6927 147.559 34.41C147.736 34.1273 147.86 33.827 147.93 33.509C148.001 33.1557 148.036 32.8377 148.036 32.555V4.677L134.362 36.583L121.377 6.32V32.555C121.377 32.8377 121.413 33.1557 121.483 33.509C121.554 33.827 121.66 34.1273 121.801 34.41C121.978 34.6927 122.172 34.94 122.384 35.152C122.596 35.364 122.844 35.47 123.126 35.47H123.391V36H117.614V35.47H117.879C118.127 35.47 118.356 35.364 118.568 35.152C118.78 34.94 118.957 34.6927 119.098 34.41C119.24 34.1273 119.346 33.827 119.416 33.509C119.487 33.1557 119.522 32.8377 119.522 32.555V4.306C119.522 4.05867 119.487 3.776 119.416 3.458C119.346 3.14 119.24 2.83967 119.098 2.557C118.957 2.27433 118.78 2.04466 118.568 1.868C118.356 1.656 118.127 1.55 117.879 1.55H117.614V1.02H123.02L135.316 30.011L147.612 1.02H153.601V1.55H153.336C153.054 1.55 152.806 1.656 152.594 1.868C152.382 2.04466 152.188 2.27433 152.011 2.557C151.87 2.83967 151.764 3.14 151.693 3.458C151.623 3.776 151.587 4.05867 151.587 4.306V32.555C151.587 32.8377 151.623 33.1557 151.693 33.509C151.764 33.827 151.87 34.1273 152.011 34.41C152.188 34.6927 152.382 34.94 152.594 35.152C152.806 35.364 153.054 35.47 153.336 35.47H153.601V36H146.075V35.47ZM173.257 0.489999C176.013 0.489999 178.487 0.984666 180.677 1.974C182.868 2.928 184.723 4.23533 186.242 5.896C187.797 7.52133 188.981 9.42933 189.793 11.62C190.641 13.7753 191.065 16.0367 191.065 18.404C191.065 21.054 190.571 23.492 189.581 25.718C188.627 27.944 187.302 29.852 185.606 31.442C183.91 33.032 181.932 34.2863 179.67 35.205C177.444 36.0883 175.059 36.53 172.515 36.53C169.795 36.53 167.339 36.0353 165.148 35.046C162.993 34.0567 161.156 32.7493 159.636 31.124C158.152 29.4987 157.004 27.626 156.191 25.506C155.379 23.386 154.972 21.1777 154.972 18.881C154.972 16.6197 155.379 14.3937 156.191 12.203C157.004 9.977 158.188 7.99833 159.742 6.267C161.332 4.53567 163.258 3.14 165.519 2.08C167.781 1.02 170.36 0.489999 173.257 0.489999ZM173.204 34.675C175.572 34.569 177.639 34.039 179.405 33.085C181.207 32.0957 182.709 30.859 183.91 29.375C185.112 27.8557 185.995 26.195 186.56 24.393C187.161 22.591 187.461 20.8067 187.461 19.04C187.461 17.0967 187.108 15.1357 186.401 13.157C185.695 11.1783 184.688 9.394 183.38 7.804C182.073 6.17867 180.501 4.87133 178.663 3.882C176.861 2.85733 174.83 2.345 172.568 2.345C170.378 2.345 168.417 2.83966 166.685 3.829C164.954 4.783 163.47 6.01967 162.233 7.539C161.032 9.05833 160.113 10.7543 159.477 12.627C158.841 14.4997 158.523 16.337 158.523 18.139C158.523 20.0823 158.894 22.0433 159.636 24.022C160.378 25.9653 161.403 27.732 162.71 29.322C164.018 30.912 165.555 32.2017 167.321 33.191C169.123 34.1803 171.084 34.675 173.204 34.675ZM208.092 35.47H208.357C208.64 35.47 208.887 35.3817 209.099 35.205C209.311 34.993 209.488 34.7457 209.629 34.463C209.771 34.145 209.877 33.827 209.947 33.509C210.018 33.1557 210.053 32.8377 210.053 32.555V17.662C208.534 17.662 207.28 18.1037 206.29 18.987C205.301 19.835 204.488 20.895 203.852 22.167L199.612 30.7C199.294 31.3713 198.941 32.025 198.552 32.661C198.199 33.297 197.775 33.8623 197.28 34.357C196.786 34.8517 196.203 35.258 195.531 35.576C194.86 35.8587 194.03 36 193.04 36H190.602V35.47C191.274 35.47 191.892 35.2757 192.457 34.887C193.023 34.463 193.517 33.9683 193.941 33.403C194.401 32.8023 194.789 32.2017 195.107 31.601C195.461 31.0003 195.743 30.488 195.955 30.064L200.142 21.584C200.955 19.888 201.997 18.5807 203.269 17.662C204.577 16.7433 206.29 16.284 208.41 16.284L196.485 3.723C195.885 3.087 195.284 2.57467 194.683 2.186C194.118 1.79733 193.517 1.58533 192.881 1.55V1.02H198.658V1.55C198.27 1.656 198.075 1.85033 198.075 2.133C198.075 2.239 198.146 2.398 198.287 2.61L210.053 15.224V4.306C210.053 4.05867 210.018 3.776 209.947 3.458C209.877 3.14 209.771 2.83967 209.629 2.557C209.488 2.27433 209.311 2.04466 209.099 1.868C208.887 1.656 208.64 1.55 208.357 1.55H208.092V1.02H215.565V1.55H215.141C214.647 1.62067 214.258 1.974 213.975 2.61C213.693 3.246 213.551 3.81133 213.551 4.306V15.224L225.37 2.61C225.512 2.46867 225.582 2.30967 225.582 2.133C225.582 1.74433 225.37 1.55 224.946 1.55V1.02H230.723V1.55C230.123 1.62067 229.504 1.868 228.868 2.292C228.232 2.68067 227.667 3.15767 227.172 3.723L215.247 16.284C217.473 16.284 219.205 16.7433 220.441 17.662C221.678 18.5807 222.72 19.888 223.568 21.584L227.702 30.064C227.914 30.488 228.179 31.0003 228.497 31.601C228.815 32.2017 229.204 32.8023 229.663 33.403C230.123 33.9683 230.635 34.463 231.2 34.887C231.766 35.2757 232.384 35.47 233.055 35.47V36H230.564C229.61 36 228.798 35.8587 228.126 35.576C227.455 35.258 226.872 34.8693 226.377 34.41C225.883 33.9153 225.459 33.35 225.105 32.714C224.752 32.078 224.399 31.4067 224.045 30.7L219.805 22.167C219.169 20.9303 218.357 19.8703 217.367 18.987C216.413 18.1037 215.141 17.662 213.551 17.662V32.555C213.551 32.8377 213.587 33.138 213.657 33.456C213.728 33.774 213.834 34.092 213.975 34.41C214.117 34.6927 214.276 34.94 214.452 35.152C214.664 35.364 214.912 35.47 215.194 35.47H215.565V36H208.092V35.47ZM257.544 35.47H257.809C258.057 35.47 258.286 35.3817 258.498 35.205C258.71 34.993 258.887 34.7457 259.028 34.463C259.205 34.145 259.329 33.827 259.399 33.509C259.47 33.1557 259.505 32.8377 259.505 32.555V18.139H242.545V32.555C242.545 32.8377 242.581 33.1557 242.651 33.509C242.722 33.827 242.828 34.1273 242.969 34.41C243.111 34.6927 243.27 34.94 243.446 35.152C243.658 35.364 243.906 35.47 244.188 35.47H244.453V36H237.033V35.47H237.298C237.546 35.47 237.775 35.3817 237.987 35.205C238.199 34.993 238.376 34.7457 238.517 34.463C238.694 34.145 238.818 33.827 238.888 33.509C238.959 33.1557 238.994 32.8377 238.994 32.555V4.306C238.994 4.05867 238.959 3.776 238.888 3.458C238.818 3.14 238.712 2.83967 238.57 2.557C238.429 2.27433 238.252 2.04466 238.04 1.868C237.828 1.656 237.581 1.55 237.298 1.55H237.033V1.02H244.453V1.55H244.188C243.906 1.55 243.658 1.656 243.446 1.868C243.234 2.04466 243.058 2.27433 242.916 2.557C242.81 2.83967 242.722 3.14 242.651 3.458C242.581 3.776 242.545 4.05867 242.545 4.306V16.284H259.505V4.306C259.505 4.05867 259.47 3.776 259.399 3.458C259.329 3.14 259.223 2.83967 259.081 2.557C258.94 2.27433 258.763 2.04466 258.551 1.868C258.339 1.656 258.092 1.55 257.809 1.55H257.544V1.02H264.964V1.55H264.699C264.417 1.55 264.169 1.656 263.957 1.868C263.745 2.04466 263.569 2.27433 263.427 2.557C263.321 2.83967 263.233 3.14 263.162 3.458C263.092 3.776 263.056 4.05867 263.056 4.306V32.555C263.056 32.8377 263.092 33.1557 263.162 33.509C263.268 33.827 263.392 34.1273 263.533 34.41C263.675 34.6927 263.834 34.94 264.01 35.152C264.222 35.364 264.452 35.47 264.699 35.47H264.964V36H257.544V35.47ZM289.613 35.47H289.878C290.726 35.47 291.15 35.0813 291.15 34.304C291.15 34.0213 291.097 33.721 290.991 33.403L286.221 20.524H276.946L272.335 33.191C272.229 33.4737 272.176 33.7387 272.176 33.986C272.176 34.4453 272.3 34.8163 272.547 35.099C272.794 35.3463 273.059 35.47 273.342 35.47H273.607V36H267.724V35.47H267.989C268.448 35.47 268.89 35.205 269.314 34.675C269.773 34.1097 270.144 33.456 270.427 32.714L282.564 0.383997L294.436 32.396C294.683 33.1027 295.019 33.7917 295.443 34.463C295.902 35.1343 296.485 35.47 297.192 35.47H297.457V36H289.613V35.47ZM277.476 18.722H285.638L281.557 7.645L277.476 18.722Z" fill="#FFEEB4"/>
</svg>
