<svg width="51" height="28" viewBox="0 0 51 28" fill="none" xmlns="http://www.w3.org/2000/svg">
<path d="M12.6798 1.07632V4.62832L6.68579 26.9763H2.61579L8.57279 4.77632H0.469791V1.07632H12.6798ZM27.3497 20.5383C27.3497 22.7337 26.844 24.411 25.8327 25.5703C24.8214 26.705 23.255 27.2723 21.1337 27.2723C19.1357 27.2723 17.6187 26.7173 16.5827 25.6073C15.5714 24.4727 15.0657 22.857 15.0657 20.7603V20.0943H18.9137V21.0193C18.9137 21.9567 19.0987 22.6227 19.4687 23.0173C19.8634 23.3873 20.3814 23.5723 21.0227 23.5723C21.738 23.5723 22.293 23.3503 22.6877 22.9063C23.0824 22.4623 23.2797 21.6237 23.2797 20.3903V15.6543C22.5644 17.1837 21.3064 17.9483 19.5057 17.9483C18.001 17.9483 16.8664 17.4427 16.1017 16.4313C15.3617 15.42 14.9917 13.9523 14.9917 12.0283V7.29232C14.9917 5.19565 15.522 3.59232 16.5827 2.48232C17.6434 1.34765 19.1727 0.780318 21.1707 0.780318C23.1687 0.780318 24.698 1.34765 25.7587 2.48232C26.8194 3.59232 27.3497 5.19565 27.3497 7.29232V20.5383ZM21.1707 14.2483C21.812 14.2483 22.3177 14.0633 22.6877 13.6933C23.0824 13.2987 23.2797 12.6327 23.2797 11.6953V7.03332C23.2797 6.09598 23.0824 5.44232 22.6877 5.07232C22.3177 4.70232 21.812 4.51732 21.1707 4.51732C20.5294 4.51732 20.0114 4.70232 19.6167 5.07232C19.2467 5.44232 19.0617 6.09598 19.0617 7.03332V11.6953C19.0617 12.6327 19.2467 13.2987 19.6167 13.6933C20.0114 14.0633 20.5294 14.2483 21.1707 14.2483ZM33.437 26.9763V15.7763H38.077V17.3763H35.197V26.9763H33.437ZM41.8568 15.7763C42.7421 15.7763 43.3981 16.011 43.8248 16.4803C44.2621 16.9497 44.4808 17.6377 44.4808 18.5443V20.0003C44.4808 20.907 44.2621 21.595 43.8248 22.0643C43.3981 22.5337 42.7421 22.7683 41.8568 22.7683H41.0248V26.9763H39.2648V15.7763H41.8568ZM41.0248 17.3763V21.1683H41.8568C42.1341 21.1683 42.3474 21.0937 42.4968 20.9443C42.6461 20.795 42.7208 20.5177 42.7208 20.1123V18.4323C42.7208 18.027 42.6461 17.7497 42.4968 17.6003C42.3474 17.451 42.1341 17.3763 41.8568 17.3763H41.0248ZM47.056 26.9763H45.296V15.7763H47.056V20.5763H49.056V15.7763H50.848V26.9763H49.056V22.1763H47.056V26.9763Z" fill="white"/>
</svg>
